<?xml version="1.0" encoding="UTF-8"?>
<svg xmlns="http://www.w3.org/2000/svg" xmlns:xlink="http://www.w3.org/1999/xlink" width="150pt" height="149.999998pt" viewBox="0 0 150 149.999998" version="1.2">
<defs>
<clipPath id="clip1">
  <path d="M 15.292969 26.117188 L 133.042969 26.117188 L 133.042969 128.117188 L 15.292969 128.117188 Z M 15.292969 26.117188 "/>
</clipPath>
<clipPath id="clip2">
  <path d="M 22 26.117188 L 24 26.117188 L 24 28 L 22 28 Z M 22 26.117188 "/>
</clipPath>
<clipPath id="clip3">
  <path d="M 22 26.117188 L 24 26.117188 L 24 28 L 22 28 Z M 22 26.117188 "/>
</clipPath>
<clipPath id="clip4">
  <path d="M 21 4 L 139 4 L 139 145 L 21 145 Z M 21 4 "/>
</clipPath>
<clipPath id="clip5">
  <path d="M 53.074219 -14.007812 L 155.144531 10.617188 L 117.148438 168.101562 L 15.078125 143.472656 Z M 53.074219 -14.007812 "/>
</clipPath>
<clipPath id="clip6">
  <path d="M 53.074219 -14.007812 L 155.144531 10.617188 L 117.148438 168.101562 L 15.078125 143.472656 Z M 53.074219 -14.007812 "/>
</clipPath>
</defs>
<g id="surface1">
<path style=" stroke:none;fill-rule:nonzero;fill:rgb(89.408875%,87.059021%,78.819275%);fill-opacity:1;" d="M 106.921875 124.464844 C 106.921875 124.25 107.394531 124.109375 108.125 123.941406 C 108.101562 124.015625 108.101562 124.085938 108.101562 124.15625 C 107.816406 124.25 107.417969 124.371094 106.921875 124.464844 Z M 106.921875 124.464844 "/>
<g clip-path="url(#clip1)" clip-rule="nonzero">
<path style=" stroke:none;fill-rule:nonzero;fill:rgb(89.408875%,87.059021%,78.819275%);fill-opacity:1;" d="M 16.898438 43.925781 C 15.433594 53.054688 17.226562 59.222656 18.289062 66.503906 C 18.644531 68.921875 18.925781 71.484375 18.972656 74.304688 C 18.996094 75.394531 18.949219 76.558594 18.902344 77.746094 C 18.878906 78.148438 18.878906 78.503906 18.832031 78.929688 C 18.832031 79.570312 18.855469 80.210938 18.855469 80.804688 L 20.816406 79.023438 L 19.046875 88.203125 C 19.304688 96.480469 19.730469 103.761719 18.902344 112.773438 C 19.046875 112.867188 19.140625 112.914062 19.234375 113.105469 C 19.351562 113.292969 19.445312 113.460938 19.515625 113.671875 C 19.730469 114.101562 19.871094 114.527344 20.035156 115.027344 C 20.296875 115.996094 20.53125 117.136719 20.671875 118.371094 C 20.933594 120.644531 20.980469 123.375 20.957031 126.480469 C 20.933594 126.789062 20.933594 127.121094 20.933594 127.453125 C 21.453125 127.453125 22.019531 127.476562 22.5625 127.476562 C 25.109375 127.546875 27.777344 127.640625 30.582031 127.738281 C 33.582031 127.855469 36.648438 127.949219 39.621094 128.046875 C 44.105469 128.1875 48.351562 128.046875 51.46875 127.191406 C 58.238281 126.644531 61.898438 124.9375 56.753906 124.203125 C 57.839844 124.203125 58.734375 124.203125 59.539062 124.25 C 65.058594 124.441406 64.777344 125.578125 69.707031 125.316406 C 70.25 125.292969 70.839844 125.246094 71.5 125.175781 L 69.800781 126.125 L 68.882812 126.644531 C 69.210938 126.71875 69.566406 126.765625 69.921875 126.8125 C 70.085938 126.859375 70.226562 126.882812 70.390625 126.90625 C 76.527344 125.4375 88.398438 123.683594 98.566406 125.128906 C 99.652344 125.316406 100.761719 125.4375 101.894531 125.554688 C 103.191406 125.554688 104.609375 125.625 106.117188 125.792969 C 101.589844 125.035156 104.773438 124.914062 106.898438 124.511719 C 106.898438 124.296875 107.371094 124.15625 108.101562 123.988281 C 108.078125 124.0625 108.078125 124.132812 108.078125 124.203125 C 107.792969 124.320312 107.371094 124.441406 106.898438 124.511719 C 108.101562 124.535156 117.328125 125.105469 118.460938 125.035156 C 119.261719 124.984375 120.089844 124.9375 120.890625 124.890625 C 121.738281 124.820312 122.589844 124.773438 123.414062 124.703125 C 126.695312 124.441406 129.363281 124.132812 132.027344 124.179688 C 132.121094 122.378906 132.359375 120.976562 133.042969 119.839844 L 132.289062 116.1875 C 132.167969 115.453125 132.074219 114.789062 132.027344 114.125 C 131.957031 113.460938 131.910156 112.84375 131.910156 112.320312 C 131.886719 111.230469 131.980469 110.164062 132.097656 109.097656 C 132.335938 107.007812 132.761719 104.945312 132.925781 102.742188 L 131.980469 102.125 C 131.484375 99.230469 131.578125 93.871094 132.429688 91.332031 C 132.664062 87.847656 132.335938 83.933594 131.816406 79.949219 C 131.296875 76.367188 130.210938 69.492188 129.761719 66.195312 C 130.730469 58.320312 128.0625 61.761719 127.449219 54.667969 C 128.039062 50.164062 126.695312 42.3125 128.015625 39.585938 C 128.183594 45.871094 130.707031 46.722656 130.1875 53.339844 C 131.039062 50.804688 131.109375 64.511719 132.335938 58.605469 C 130.660156 48.621094 131.507812 36.90625 130.917969 26.136719 L 129.078125 26.136719 C 126.363281 26.304688 123.792969 26.496094 121.574219 26.851562 C 121.761719 26.566406 121.667969 26.351562 121.339844 26.136719 L 89.789062 26.136719 L 83.417969 27.347656 L 69.707031 27.347656 L 68.835938 26.136719 L 30.253906 26.136719 C 28.980469 26.398438 25.441406 26.683594 23.433594 26.921875 C 23.433594 26.945312 23.410156 26.96875 23.410156 27.015625 C 23.574219 27.039062 23.695312 27.160156 23.8125 27.324219 C 23.246094 27.277344 22.703125 27.207031 22.160156 27.132812 C 19.824219 28.605469 17.511719 31.570312 15.316406 35.199219 C 15.648438 38.421875 16.167969 41.386719 16.898438 43.925781 Z M 120.605469 79.855469 C 120.582031 80.140625 120.605469 80.425781 120.605469 80.660156 C 120.582031 80.402344 120.582031 80.117188 120.558594 79.855469 C 120.605469 79.855469 120.605469 79.855469 120.605469 79.855469 Z M 120.605469 79.855469 "/>
</g>
<g clip-path="url(#clip2)" clip-rule="nonzero">
<path style=" stroke:none;fill-rule:nonzero;fill:rgb(89.408875%,87.059021%,78.819275%);fill-opacity:1;" d="M 23.410156 26.921875 C 23.410156 26.945312 23.386719 26.96875 23.386719 27.015625 C 23.550781 27.039062 23.671875 27.160156 23.789062 27.324219 C 23.222656 27.277344 22.679688 27.207031 22.136719 27.132812 C 22.371094 27.085938 22.820312 27.015625 23.410156 26.921875 Z M 23.410156 26.921875 "/>
</g>
<path style=" stroke:none;fill-rule:nonzero;fill:rgb(89.408875%,87.059021%,78.819275%);fill-opacity:1;" d="M 120.582031 79.855469 C 120.605469 79.855469 120.605469 79.855469 120.628906 79.855469 C 120.605469 80.140625 120.628906 80.425781 120.628906 80.660156 C 120.605469 80.402344 120.605469 80.117188 120.582031 79.855469 Z M 120.582031 79.855469 "/>
<g clip-path="url(#clip3)" clip-rule="nonzero">
<path style=" stroke:none;fill-rule:nonzero;fill:rgb(89.408875%,87.059021%,78.819275%);fill-opacity:1;" d="M 23.410156 26.921875 C 23.410156 26.945312 23.386719 26.96875 23.386719 27.015625 C 23.550781 27.039062 23.671875 27.160156 23.789062 27.324219 C 23.222656 27.277344 22.679688 27.207031 22.136719 27.132812 C 22.609375 26.828125 23.105469 26.566406 23.574219 26.375 C 23.527344 26.636719 23.480469 26.730469 23.410156 26.921875 Z M 23.410156 26.921875 "/>
</g>
<path style=" stroke:none;fill-rule:nonzero;fill:rgb(89.408875%,87.059021%,78.819275%);fill-opacity:1;" d="M 106.921875 124.464844 C 106.921875 124.25 107.394531 124.109375 108.125 123.941406 C 108.101562 124.015625 108.101562 124.085938 108.101562 124.15625 C 107.816406 124.25 107.417969 124.371094 106.921875 124.464844 Z M 106.921875 124.464844 "/>
<g clip-path="url(#clip4)" clip-rule="nonzero">
<g clip-path="url(#clip5)" clip-rule="nonzero">
<g clip-path="url(#clip6)" clip-rule="nonzero">
<path style=" stroke:none;fill-rule:nonzero;fill:rgb(43.139648%,57.649231%,27.449036%);fill-opacity:1;" d="M 131.550781 60.152344 C 124.621094 60.035156 119.425781 64 114.992188 67.207031 L 102.617188 74.917969 C 104.453125 73.738281 110.890625 69.328125 112.964844 64.222656 C 115.402344 58.265625 109.554688 53.9375 105.160156 61.5625 C 100.761719 69.1875 100.890625 72.945312 102.121094 75.21875 L 87.875 84.90625 C 89.414062 82.6875 94.074219 75.578125 93.636719 71.355469 C 93.140625 66.308594 88.089844 65.511719 86.183594 72.863281 C 84.347656 79.941406 84.148438 84.398438 87.03125 85.449219 L 78.773438 91.105469 C 80.097656 88.832031 81.570312 85.558594 81.378906 82.59375 C 81.015625 77.386719 81.648438 69.402344 78.609375 70.324219 C 74.703125 71.488281 73.554688 72.765625 72.554688 80.660156 C 71.722656 87.070312 74.394531 91.28125 75.90625 93.070312 L 63.988281 101.148438 C 65.46875 99.042969 68.117188 94.367188 67.238281 88.484375 C 66.109375 80.691406 61.378906 80.039062 60.476562 84.714844 C 60.179688 84.609375 59.886719 84.472656 59.558594 84.363281 C 55.929688 83.035156 53.296875 82.6875 51.351562 82.835938 C 52.34375 81 53.359375 79.203125 54.347656 77.402344 C 58.71875 78.585938 69.453125 81.175781 69.828125 78.285156 C 70.289062 74.503906 69.359375 73.796875 62.144531 73.644531 C 59.445312 73.574219 57.425781 74.027344 55.925781 74.605469 C 58.507812 70.074219 61.121094 65.683594 63.730469 61.582031 C 65.871094 63.425781 71.167969 67.101562 77.636719 65.097656 C 86.109375 62.441406 80.027344 59.613281 77.980469 59.121094 C 76.207031 58.691406 69.90625 56.363281 66.558594 57.238281 C 68.125 54.894531 69.664062 52.671875 71.167969 50.605469 C 71.410156 50.273438 71.648438 49.945312 71.890625 49.613281 C 75.445312 51.25 87.8125 56.46875 89.296875 51.121094 C 90.875 45.378906 78.492188 44.660156 74.835938 45.59375 C 78.253906 40.808594 80.925781 36.851562 83.042969 33.570312 C 87.734375 35.191406 98.183594 38.425781 98.960938 35.207031 C 99.714844 32.085938 98.40625 31.867188 92.128906 30.253906 C 89.382812 29.558594 86.867188 29.925781 84.929688 30.589844 C 87.066406 27.089844 88.421875 24.5625 89.246094 22.753906 C 89.90625 23.234375 90.785156 23.351562 91.554688 22.984375 L 100.875 18.6875 C 116.164062 11.648438 115.058594 0.945312 103.980469 5.015625 C 97.207031 7.464844 91.882812 14.640625 88.71875 19.839844 C 88.394531 20.375 88.308594 21.003906 88.460938 21.589844 C 87.078125 23.558594 85.101562 26.386719 82.71875 29.832031 C 84.621094 26.628906 87.257812 21.332031 87.417969 16.511719 C 87.679688 8.988281 80.488281 6.347656 78.949219 16.476562 C 77.441406 26.484375 78.800781 30.636719 80.726562 32.71875 C 77.78125 37 74.378906 41.980469 70.789062 47.339844 C 71.621094 43.359375 72.878906 35.59375 71.261719 31.703125 C 69.007812 26.296875 63.847656 27.289062 64.613281 36.191406 C 65.285156 44.128906 66.5 49.027344 69.199219 49.773438 C 67.222656 52.734375 65.195312 55.777344 63.179688 58.886719 C 63.800781 56.054688 64.703125 50.308594 63.105469 46.195312 C 60.914062 40.515625 58.746094 31.402344 56.121094 33.558594 C 52.769531 36.3125 52.097656 38.160156 53.902344 47.316406 C 55.554688 55.75 60.574219 59.359375 62.214844 60.339844 C 59.179688 65.019531 56.140625 69.699219 53.289062 74.261719 C 53.921875 71.109375 54.359375 65.542969 51.757812 59.957031 C 47.800781 51.417969 42.757812 52.859375 43.996094 58.859375 C 45.101562 64.34375 47.695312 76.929688 51.445312 77.21875 C 49.855469 79.785156 48.355469 82.242188 46.933594 84.652344 C 46.753906 80.300781 45.683594 69.703125 39.226562 71.386719 C 32.183594 73.21875 40.488281 87.894531 45.175781 87.632812 C 43.242188 90.957031 41.566406 94.023438 40.199219 96.738281 C 27.898438 121.027344 21.820312 141.113281 21.820312 141.113281 L 21.308594 144.976562 C 21.308594 144.976562 24.816406 136.746094 30.390625 124.773438 L 55.1875 108.652344 C 57.753906 110.890625 69.894531 121.339844 71.488281 119.421875 C 71.488281 119.421875 76.234375 118.136719 67.113281 111.398438 C 62.363281 107.886719 59.199219 107.1875 57.261719 107.304688 L 64.480469 102.597656 C 67.992188 104.804688 77.492188 110.5 78.71875 108.238281 C 80.253906 105.367188 79.589844 104.492188 73.007812 102.125 C 70.503906 101.230469 68.496094 100.972656 66.976562 100.964844 L 77.378906 94.203125 C 78.59375 96.148438 82.464844 101.296875 89.417969 101.710938 C 98.007812 102.195312 93.238281 98.09375 91.449219 97.046875 C 89.832031 96.105469 84.074219 91.800781 80.828125 91.988281 L 89.496094 86.367188 C 92.808594 89.144531 101.820312 96.179688 104.609375 92.542969 C 107.585938 88.65625 97.777344 84.507812 93.566406 83.71875 L 104.242188 76.765625 C 108.214844 79.605469 116.507812 85.074219 118.128906 82.777344 C 119.746094 80.507812 118.613281 79.976562 113.28125 76.710938 C 111.25 75.476562 109.140625 74.96875 107.300781 74.816406 L 113.9375 70.519531 C 114.160156 70.667969 114.464844 70.742188 114.859375 70.707031 L 124.699219 70.167969 C 140.839844 69.265625 142.953125 60.375 131.550781 60.152344 Z M 49.261719 86.804688 C 51.972656 88.042969 56.222656 89.878906 59.8125 91.097656 C 59.46875 96.136719 59.621094 101.8125 62.273438 102.355469 L 56.382812 106.378906 L 55.023438 107.1875 C 55.808594 105.007812 59.441406 93.832031 52.148438 93.074219 C 44.757812 92.328125 48.878906 108.230469 53.59375 108.007812 L 32.371094 120.582031 C 37.085938 110.570312 42.953125 98.601562 49.261719 86.804688 Z M 49.261719 86.804688 "/>
</g>
</g>
</g>
</g>
</svg>
